<?xml version="1.0" encoding="UTF-8"?>
<svg version="1.1" viewBox="0 0 2048 477" width="1280" height="1280" xmlns="http://www.w3.org/2000/svg">
<path transform="translate(402,146)" d="m0 0h97l17 8 9 7 6 8 7 14 2 6 3 16 2 10 1 1 1 7 1 1 3 18 1 1 1 7 2 1 2-24 3-4 18-5 10-2h19l6 4 3 9v22l-2 4-33 1-1 1h-17l7 8 4 5 2 6v72l-3 7-6 8-7 7-9 5-1 37-5 9-14 8-9 2h-14l-10-2-8-5-8-8-2-6v-31h-109l-1-1-1-46-1-1v-15l1-1 1-71 3-2h165l-2-5-4-18-3-10-1-8-3-8-2-10-6-12-7-6-8-5-8-2-94-1zm89 155v26l52 1 7-1v-24l-2-2zm-119 2v9h102v-9zm0 15v9h100v-9z" fill="#FEFEFE"/>
<path transform="translate(292,81)" d="m0 0 4 1 1 50 5 4 17 10 7 4 4-2 9-5 15-9 4-1v-49l1-3 5 1 5 4 8 7 4 6 5 8 5 11 1 5v28l-3 12-6 11-7 9-9 8-8 5 1 1v215l-1 1-1 11-6 10-3 3-7 4-6 2h-19l-11-7-7-8-3-6-1-225-9-7-8-6-4-5-6-8-5-11-3-13v-18l3-13 10-19 13-13zm29 326-4 4v13l5 3 7 1 5-3 2-5v-8l-5-5z" fill="#FEFEFE"/>
<path transform="translate(1646,331)" d="m0 0h22l18 45 4 11 10-25 8-21 4-9 1-1h20v2l-6 2-1 19v50l7 1v2h-28v-2l6-2v-58l-16 42-7 19h-4l-4-6-6-16-10-25-5-12-1-2v54l1 1v5h6v2h-17v-2h6l1-13v-56l-9-3z" fill="#FEFEFE"/>
<path transform="translate(1510,331)" d="m0 0h48l10 6 4 4v16l-4 6-8 5-2 1h-16l2 3 6 2 6-1 12 16 7 10 5 4 5 2v2h-18l-6-4-7-9-8-12-6-8-2-5h-8l1 34 7 2v2h-28v-2l5-3 1-1v-64l-6-4zm20 2v34h13l10-3 4-3 2-5v-12l-5-8-7-3z" fill="#FEFEFE"/>
<path transform="translate(819,331)" d="m0 0h48l10 4 5 5 2 7v7l-4 8-6 5-6 2-14 1 4 4 8-1 8 9 4 6v2h2l7 11 5 3 5 2v1h-19l-10-9-9-12-8-12-4-4-7-1 1 34 7 3v1h-29v-2l7-2v-68l-7-2zm21 2v34h13l1-1 9-1 6-7 1-2v-11l-4-8-8-4z" fill="#FEFEFE"/>
<path transform="translate(659,329)" d="m0 0h15l7 3 9 2 4-3 2 7v15h-4l-3-8-4-5-7-4-7-2h-9l-12 6-6 10-1 7-1 1v15l2 7 4 10 8 8 4 2 7 1h3l9-1 3-4 1-4 1-22-9-3 1-2h29v2l-4 2h-3v37h-4l-1-8h-6l-7 7-11 4h-14l-10-4-8-6-4-5-5-12-1-11 1-13 5-12 7-8 7-5 4-2 7-1z" fill="#FEFEFE"/>
<path transform="translate(1042,329)" d="m0 0h15l7 3 9 2 3-3h3l1 19 1 4-4-1-5-9-1-3-5-2-5-3-5-2h-9l-8 3-6 4-6 11v24l3 10 7 10 6 4 9 1h3l7-1 5-6v-23l-2-3-5-1v-2h28v2l-6 4-1 36h-2l-3-9-5 1-10 7-9 3h-12l-9-3-10-6-8-14-2-6v-18l3-10 7-12 15-9z" fill="#FEFEFE"/>
<path transform="translate(1328,331)" d="m0 0h56l4 9 2 5v3l-4-1-4-10-7-2-1-1h-19l-6 3-1 28 15-1 6-1 2-13 4 1v35h-4l-1-13-3-3-4-2-15-1 1 34 3 3h17l11-7 6-8 4-12 4-2-1 10-3 14-1 1-1 7h-60l-1-2 7-2v-68l-7-2z" fill="#FEFEFE"/>
<path transform="translate(1108,331)" d="m0 0h56l4 9 2 5v3l-4-1-4-10-6-2-2-1h-19l-6 3-1 28 16-1 5-1 2-13 4 1v35h-4l-1-13-3-3-4-2-15-1 1 34 3 3h17l10-6 6-7 6-15 3-1-1 10-3 14-1 1-1 7h-60l-1-2 7-2v-68l-6-2z" fill="#FEFEFE"/>
<path transform="translate(1752,331)" d="m0 0h57l3 7 3 10h-4l-2-6-2-2v-3l-4-1-4-2h-19l-6 3-1 28 15-1 6-1 2-13h3l1 24-1 12h-3l-1-12-4-4-3-2-15-1 1 34 3 3h17l9-6 7-7 4-11 3-5h2l-2 14-4 17-1 1h-60v-2l6-1 1-2v-67l-7-2z" fill="#FEFEFE"/>
<path transform="translate(1237,331)" d="m0 0h23l6 8 12 17 10 13 8 11 2 3v-48l-7-2 1-2h16v2h-5l-1 4v62l1 7-5 1-10-13-8-12-4-5-6-8-13-18-4-5-1 19v37l1 2 6 1v2h-19v-2l7-2v-66l-10-4z" fill="#FEFEFE"/>
<path transform="translate(931,331)" d="m0 0h20l3 3 15 36 10 23 4 8 3 3 6 2v1h-32v-2l6-2v-7l-5-11v-3l-29 1-6 13-2 6 7 3v2h-19l8-8 5-10 9-21 4-10 5-12-1-5-2-6-9-2zm14 19-5 12-7 15v3l26 1-1-5-9-21-3-5z" fill="#FEFEFE"/>
<path transform="translate(742,331)" d="m0 0h20l3 5 15 36 7 15 5 12 5 5 5 1v2h-32v-2l6-2 1-3-6-17h-29l-5 11-3 9 4 1 3 1v2h-18v-2l5-3 5-7 8-19 8-20 5-10-2-6-2-4-8-3zm13 19-7 16-5 12v2l26 1v-3l-9-22-3-6z" fill="#FEFEFE"/>
<path transform="translate(1432,331)" d="m0 0h20l5 12 9 21 11 25 4 10 2 3 7 3v2h-30v-2l7-2-1-4-6-16h-28l-7 15v5l5 3v1h-19v-2l8-4 5-11 18-42v-7l-3-5-7-3zm13 17-8 19-5 13 24 1 2-1-2-9-8-18-2-5z" fill="#FEFEFE"/>
</svg>
